<mxfile host="65bd71144e">
    <diagram id="17TiUcdI1liMfUoA8DAE" name="Nhân viên-page">
        <mxGraphModel dx="1904" dy="524" grid="1" gridSize="10" guides="1" tooltips="1" connect="1" arrows="1" fold="1" page="1" pageScale="1" pageWidth="850" pageHeight="1100" math="0" shadow="0">
            <root>
                <mxCell id="0"/>
                <mxCell id="1" parent="0"/>
                <mxCell id="12" value="" style="strokeWidth=1;shadow=0;dashed=0;align=center;html=1;shape=mxgraph.mockup.navigation.anchor;fontSize=17;fontColor=#008cff;fontStyle=1;" parent="1" vertex="1">
                    <mxGeometry x="260" y="130" width="60" height="30" as="geometry"/>
                </mxCell>
                <mxCell id="16" value="Logo" style="html=1;shadow=0;dashed=0;fontSize=16;align=left;spacing=15;" parent="1" vertex="1">
                    <mxGeometry x="-180" y="30" width="820" height="60" as="geometry"/>
                </mxCell>
                <mxCell id="17" value="Nhân viên" style="fillColor=none;strokeColor=none;fontSize=14;fontColor=#ffffff;align=center;" parent="16" vertex="1">
                    <mxGeometry width="70" height="40" relative="1" as="geometry">
                        <mxPoint x="70" y="10" as="offset"/>
                    </mxGeometry>
                </mxCell>
                <mxCell id="18" value="Phòng ban" style="fillColor=none;strokeColor=none;fontSize=14;fontColor=#FFFFFF;align=center;" parent="16" vertex="1">
                    <mxGeometry width="70" height="40" relative="1" as="geometry">
                        <mxPoint x="160" y="10" as="offset"/>
                    </mxGeometry>
                </mxCell>
                <mxCell id="19" value="Bảng lương" style="fillColor=none;strokeColor=none;fontSize=14;fontColor=#FFFFFF;align=center;spacingRight=0;" parent="16" vertex="1">
                    <mxGeometry width="80" height="40" relative="1" as="geometry">
                        <mxPoint x="240" y="10" as="offset"/>
                    </mxGeometry>
                </mxCell>
                <mxCell id="23" value="" style="html=1;shadow=0;dashed=0;fillColor=#0085FC;strokeColor=none;fontSize=16;fontColor=#ffffff;align=left;spacing=15;" parent="1" vertex="1">
                    <mxGeometry x="-180" y="90" width="820" height="60" as="geometry"/>
                </mxCell>
                <mxCell id="29" value="Search" style="html=1;shadow=0;dashed=0;shape=mxgraph.bootstrap.rrect;rSize=5;fontSize=14;fontColor=#6C767D;strokeColor=#CED4DA;fillColor=#ffffff;align=left;spacing=10;" parent="23" vertex="1">
                    <mxGeometry x="1" width="622" height="40" relative="1" as="geometry">
                        <mxPoint x="-643" y="10" as="offset"/>
                    </mxGeometry>
                </mxCell>
                <mxCell id="30" value="Sắp xếp theo" style="rounded=1;fillColor=#F1F2F4;strokeColor=none;html=1;fontColor=#596780;align=left;fontSize=12;spacingLeft=10;sketch=0;" parent="23" vertex="1">
                    <mxGeometry x="8.03921568627451" y="13.5" width="144.7058823529412" height="33" as="geometry"/>
                </mxCell>
                <mxCell id="31" value="" style="shape=triangle;direction=south;fillColor=#596780;strokeColor=none;html=1;sketch=0;" parent="30" vertex="1">
                    <mxGeometry x="1" y="0.5" width="12" height="6" relative="1" as="geometry">
                        <mxPoint x="-20" y="-3" as="offset"/>
                    </mxGeometry>
                </mxCell>
                <mxCell id="32" value="&lt;span style=&quot;font-size: 20px&quot;&gt;&lt;b&gt;Tên nhân viên&lt;br&gt;&lt;/b&gt;&lt;/span&gt;ID&lt;br&gt;Phòng ban" style="html=1;shadow=0;dashed=0;shape=mxgraph.bootstrap.rrect;rSize=5;strokeColor=#DFDFDF;html=1;whiteSpace=wrap;fillColor=#ffffff;fontColor=#000000;verticalAlign=top;align=left;spacing=20;spacingBottom=0;fontSize=14;spacingTop=160;" parent="1" vertex="1">
                    <mxGeometry width="260" height="370" relative="1" as="geometry">
                        <mxPoint x="-180" y="160" as="offset"/>
                    </mxGeometry>
                </mxCell>
                <mxCell id="33" value="Image cap" style="html=1;shadow=0;dashed=0;shape=mxgraph.bootstrap.topButton;rSize=5;perimeter=none;whiteSpace=wrap;fillColor=#868E96;strokeColor=#DFDFDF;fontColor=#DEE2E6;resizeWidth=1;fontSize=18;" parent="32" vertex="1">
                    <mxGeometry width="260" height="160" relative="1" as="geometry"/>
                </mxCell>
                <mxCell id="47" value="" style="rounded=0;whiteSpace=wrap;html=1;fillColor=#eeeeee;strokeColor=#36393d;" parent="1" vertex="1">
                    <mxGeometry x="-180" y="930" width="830" height="170" as="geometry"/>
                </mxCell>
                <mxCell id="48" value="&lt;h5 style=&quot;box-sizing: border-box ; margin-top: 0px ; margin-bottom: 0.5rem ; font-weight: 500 ; line-height: 1.2 ; font-size: 1.25rem ; color: rgb(33 , 37 , 41) ; font-family: , &amp;#34;blinkmacsystemfont&amp;#34; , &amp;#34;segoe ui&amp;#34; , &amp;#34;roboto&amp;#34; , &amp;#34;helvetica neue&amp;#34; , &amp;#34;arial&amp;#34; , &amp;#34;noto sans&amp;#34; , &amp;#34;liberation sans&amp;#34; , sans-serif , &amp;#34;apple color emoji&amp;#34; , &amp;#34;segoe ui emoji&amp;#34; , &amp;#34;segoe ui symbol&amp;#34; , &amp;#34;noto color emoji&amp;#34; ; background-color: rgb(233 , 236 , 239)&quot;&gt;Links&lt;/h5&gt;&lt;ul class=&quot;list-unstyled&quot; style=&quot;box-sizing: border-box ; margin-top: 0px ; margin-bottom: 1rem ; padding-left: 0px ; list-style: none ; color: rgb(33 , 37 , 41) ; font-family: , &amp;#34;blinkmacsystemfont&amp;#34; , &amp;#34;segoe ui&amp;#34; , &amp;#34;roboto&amp;#34; , &amp;#34;helvetica neue&amp;#34; , &amp;#34;arial&amp;#34; , &amp;#34;noto sans&amp;#34; , &amp;#34;liberation sans&amp;#34; , sans-serif , &amp;#34;apple color emoji&amp;#34; , &amp;#34;segoe ui emoji&amp;#34; , &amp;#34;segoe ui symbol&amp;#34; , &amp;#34;noto color emoji&amp;#34; ; font-size: 16px ; background-color: rgb(233 , 236 , 239)&quot;&gt;&lt;li style=&quot;box-sizing: border-box&quot;&gt;&lt;a href=&quot;http://localhost:3000/home&quot; style=&quot;box-sizing: border-box ; color: rgb(0 , 123 , 255) ; background-color: transparent&quot;&gt;Home&lt;/a&gt;&lt;/li&gt;&lt;li style=&quot;box-sizing: border-box&quot;&gt;&lt;a href=&quot;http://localhost:3000/aboutus&quot; style=&quot;box-sizing: border-box ; color: rgb(0 , 123 , 255) ; background-color: transparent&quot;&gt;About Us&lt;/a&gt;&lt;/li&gt;&lt;li style=&quot;box-sizing: border-box&quot;&gt;&lt;a href=&quot;http://localhost:3000/menu&quot; style=&quot;box-sizing: border-box ; color: rgb(0 , 123 , 255) ; background-color: transparent&quot;&gt;Menu&lt;/a&gt;&lt;/li&gt;&lt;li style=&quot;box-sizing: border-box&quot;&gt;&lt;a href=&quot;http://localhost:3000/contactus&quot; style=&quot;box-sizing: border-box ; color: rgb(0 , 123 , 255) ; background-color: transparent&quot;&gt;Contact Us&lt;/a&gt;&lt;/li&gt;&lt;/ul&gt;" style="rounded=0;whiteSpace=wrap;html=1;fillColor=#cce5ff;strokeColor=#36393d;" parent="1" vertex="1">
                    <mxGeometry x="-150" y="940" width="120" height="150" as="geometry"/>
                </mxCell>
                <mxCell id="49" value="&#10;&#10;&lt;h5 style=&quot;box-sizing: border-box; margin-top: 0px; margin-bottom: 0.5rem; font-weight: 500; line-height: 1.2; font-size: 1.25rem; color: rgb(33, 37, 41); font-style: normal; letter-spacing: normal; text-align: center; text-indent: 0px; text-transform: none; word-spacing: 0px; background-color: rgb(233, 236, 239);&quot;&gt;Our Address&lt;/h5&gt;&lt;address style=&quot;box-sizing: border-box; margin-bottom: 1rem; font-style: normal; line-height: inherit; color: rgb(33, 37, 41); font-size: 16px; font-weight: 400; letter-spacing: normal; text-align: center; text-indent: 0px; text-transform: none; word-spacing: 0px; background-color: rgb(233, 236, 239);&quot;&gt;121, Clear Water Bay Road&lt;br style=&quot;box-sizing: border-box&quot;&gt;Clear Water Bay, Kowloon&lt;br style=&quot;box-sizing: border-box&quot;&gt;HONG KONG&lt;br style=&quot;box-sizing: border-box&quot;&gt;&lt;i class=&quot;fa fa-phone fa-lg&quot; style=&quot;box-sizing: border-box ; font-size: 1.25em ; line-height: 0.05em ; vertical-align: -0.075em&quot;&gt;&lt;/i&gt;: +852 1234 5678&lt;br style=&quot;box-sizing: border-box&quot;&gt;&lt;i class=&quot;fa fa-fax fa-lg&quot; style=&quot;box-sizing: border-box ; font-size: 1.25em ; line-height: 0.05em ; vertical-align: -0.075em&quot;&gt;&lt;/i&gt;: +852 8765 4321&lt;/address&gt;&#10;&#10;" style="rounded=0;whiteSpace=wrap;html=1;fillColor=#cce5ff;strokeColor=#36393d;" parent="1" vertex="1">
                    <mxGeometry y="940" width="620" height="150" as="geometry"/>
                </mxCell>
                <mxCell id="gEO3absR99PD5u_wKUGM-49" value="&lt;span style=&quot;font-size: 20px&quot;&gt;&lt;b&gt;Tên nhân viên&lt;br&gt;&lt;/b&gt;&lt;/span&gt;ID&lt;br&gt;Phòng ban" style="html=1;shadow=0;dashed=0;shape=mxgraph.bootstrap.rrect;rSize=5;strokeColor=#DFDFDF;html=1;whiteSpace=wrap;fillColor=#ffffff;fontColor=#000000;verticalAlign=top;align=left;spacing=20;spacingBottom=0;fontSize=14;spacingTop=160;" parent="1" vertex="1">
                    <mxGeometry x="110" y="160" width="260" height="370" as="geometry"/>
                </mxCell>
                <mxCell id="gEO3absR99PD5u_wKUGM-50" value="Image cap" style="html=1;shadow=0;dashed=0;shape=mxgraph.bootstrap.topButton;rSize=5;perimeter=none;whiteSpace=wrap;fillColor=#868E96;strokeColor=#DFDFDF;fontColor=#DEE2E6;resizeWidth=1;fontSize=18;" parent="gEO3absR99PD5u_wKUGM-49" vertex="1">
                    <mxGeometry width="260" height="160" relative="1" as="geometry"/>
                </mxCell>
                <mxCell id="gEO3absR99PD5u_wKUGM-51" value="&lt;span style=&quot;font-size: 20px&quot;&gt;&lt;b&gt;Tên nhân viên&lt;br&gt;&lt;/b&gt;&lt;/span&gt;ID&lt;br&gt;Phòng ban" style="html=1;shadow=0;dashed=0;shape=mxgraph.bootstrap.rrect;rSize=5;strokeColor=#DFDFDF;html=1;whiteSpace=wrap;fillColor=#ffffff;fontColor=#000000;verticalAlign=top;align=left;spacing=20;spacingBottom=0;fontSize=14;spacingTop=160;" parent="1" vertex="1">
                    <mxGeometry x="390" y="160" width="260" height="370" as="geometry"/>
                </mxCell>
                <mxCell id="gEO3absR99PD5u_wKUGM-52" value="Image cap" style="html=1;shadow=0;dashed=0;shape=mxgraph.bootstrap.topButton;rSize=5;perimeter=none;whiteSpace=wrap;fillColor=#868E96;strokeColor=#DFDFDF;fontColor=#DEE2E6;resizeWidth=1;fontSize=18;" parent="gEO3absR99PD5u_wKUGM-51" vertex="1">
                    <mxGeometry width="260" height="160" relative="1" as="geometry"/>
                </mxCell>
                <mxCell id="gEO3absR99PD5u_wKUGM-53" value="&lt;span style=&quot;font-size: 20px&quot;&gt;&lt;b&gt;Tên nhân viên&lt;br&gt;&lt;/b&gt;&lt;/span&gt;ID&lt;br&gt;Phòng ban" style="html=1;shadow=0;dashed=0;shape=mxgraph.bootstrap.rrect;rSize=5;strokeColor=#DFDFDF;html=1;whiteSpace=wrap;fillColor=#ffffff;fontColor=#000000;verticalAlign=top;align=left;spacing=20;spacingBottom=0;fontSize=14;spacingTop=160;" parent="1" vertex="1">
                    <mxGeometry x="-180" y="550" width="260" height="370" as="geometry"/>
                </mxCell>
                <mxCell id="gEO3absR99PD5u_wKUGM-54" value="Image cap" style="html=1;shadow=0;dashed=0;shape=mxgraph.bootstrap.topButton;rSize=5;perimeter=none;whiteSpace=wrap;fillColor=#868E96;strokeColor=#DFDFDF;fontColor=#DEE2E6;resizeWidth=1;fontSize=18;" parent="gEO3absR99PD5u_wKUGM-53" vertex="1">
                    <mxGeometry width="260" height="160" relative="1" as="geometry"/>
                </mxCell>
                <mxCell id="gEO3absR99PD5u_wKUGM-55" value="&lt;span style=&quot;font-size: 20px&quot;&gt;&lt;b&gt;Tên nhân viên&lt;br&gt;&lt;/b&gt;&lt;/span&gt;ID&lt;br&gt;Phòng ban" style="html=1;shadow=0;dashed=0;shape=mxgraph.bootstrap.rrect;rSize=5;strokeColor=#DFDFDF;html=1;whiteSpace=wrap;fillColor=#ffffff;fontColor=#000000;verticalAlign=top;align=left;spacing=20;spacingBottom=0;fontSize=14;spacingTop=160;" parent="1" vertex="1">
                    <mxGeometry x="105" y="550" width="260" height="370" as="geometry"/>
                </mxCell>
                <mxCell id="gEO3absR99PD5u_wKUGM-56" value="Image cap" style="html=1;shadow=0;dashed=0;shape=mxgraph.bootstrap.topButton;rSize=5;perimeter=none;whiteSpace=wrap;fillColor=#868E96;strokeColor=#DFDFDF;fontColor=#DEE2E6;resizeWidth=1;fontSize=18;" parent="gEO3absR99PD5u_wKUGM-55" vertex="1">
                    <mxGeometry width="260" height="160" relative="1" as="geometry"/>
                </mxCell>
                <mxCell id="gEO3absR99PD5u_wKUGM-57" value="&lt;span style=&quot;font-size: 20px&quot;&gt;&lt;b&gt;Tên nhân viên&lt;br&gt;&lt;/b&gt;&lt;/span&gt;ID&lt;br&gt;Phòng ban" style="html=1;shadow=0;dashed=0;shape=mxgraph.bootstrap.rrect;rSize=5;strokeColor=#DFDFDF;html=1;whiteSpace=wrap;fillColor=#ffffff;fontColor=#000000;verticalAlign=top;align=left;spacing=20;spacingBottom=0;fontSize=14;spacingTop=160;" parent="1" vertex="1">
                    <mxGeometry x="390" y="550" width="260" height="370" as="geometry"/>
                </mxCell>
                <mxCell id="gEO3absR99PD5u_wKUGM-58" value="Image cap" style="html=1;shadow=0;dashed=0;shape=mxgraph.bootstrap.topButton;rSize=5;perimeter=none;whiteSpace=wrap;fillColor=#868E96;strokeColor=#DFDFDF;fontColor=#DEE2E6;resizeWidth=1;fontSize=18;" parent="gEO3absR99PD5u_wKUGM-57" vertex="1">
                    <mxGeometry width="260" height="160" relative="1" as="geometry"/>
                </mxCell>
            </root>
        </mxGraphModel>
    </diagram>
    <diagram id="fJXQ8wb4RPndDhVWZOaW" name="Phòng ban-page">
        <mxGraphModel dx="1904" dy="524" grid="1" gridSize="10" guides="1" tooltips="1" connect="1" arrows="1" fold="1" page="1" pageScale="1" pageWidth="850" pageHeight="1100" math="0" shadow="0">
            <root>
                <mxCell id="rc40N2USjCdUX6H5CnkW-0"/>
                <mxCell id="rc40N2USjCdUX6H5CnkW-1" parent="rc40N2USjCdUX6H5CnkW-0"/>
                <mxCell id="tTIFcQUEu4Zsf-WGmQC3-0" value="" style="strokeWidth=1;shadow=0;dashed=0;align=center;html=1;shape=mxgraph.mockup.navigation.anchor;fontSize=17;fontColor=#008cff;fontStyle=1;" parent="rc40N2USjCdUX6H5CnkW-1" vertex="1">
                    <mxGeometry x="260" y="130" width="60" height="30" as="geometry"/>
                </mxCell>
                <mxCell id="tTIFcQUEu4Zsf-WGmQC3-1" value="Logo" style="html=1;shadow=0;dashed=0;fontSize=16;align=left;spacing=15;" parent="rc40N2USjCdUX6H5CnkW-1" vertex="1">
                    <mxGeometry x="-180" y="70" width="820" height="60" as="geometry"/>
                </mxCell>
                <mxCell id="tTIFcQUEu4Zsf-WGmQC3-2" value="Nhân viên" style="fillColor=none;strokeColor=none;fontSize=14;fontColor=#ffffff;align=center;" parent="tTIFcQUEu4Zsf-WGmQC3-1" vertex="1">
                    <mxGeometry width="70" height="40" relative="1" as="geometry">
                        <mxPoint x="70" y="10" as="offset"/>
                    </mxGeometry>
                </mxCell>
                <mxCell id="tTIFcQUEu4Zsf-WGmQC3-3" value="Phòng ban" style="fillColor=none;strokeColor=none;fontSize=14;fontColor=#FFFFFF;align=center;" parent="tTIFcQUEu4Zsf-WGmQC3-1" vertex="1">
                    <mxGeometry width="70" height="40" relative="1" as="geometry">
                        <mxPoint x="160" y="10" as="offset"/>
                    </mxGeometry>
                </mxCell>
                <mxCell id="tTIFcQUEu4Zsf-WGmQC3-4" value="Bảng lương" style="fillColor=none;strokeColor=none;fontSize=14;fontColor=#FFFFFF;align=center;spacingRight=0;" parent="tTIFcQUEu4Zsf-WGmQC3-1" vertex="1">
                    <mxGeometry width="80" height="40" relative="1" as="geometry">
                        <mxPoint x="240" y="10" as="offset"/>
                    </mxGeometry>
                </mxCell>
                <mxCell id="tTIFcQUEu4Zsf-WGmQC3-22" value="" style="rounded=0;whiteSpace=wrap;html=1;fillColor=#eeeeee;strokeColor=#36393d;" parent="rc40N2USjCdUX6H5CnkW-1" vertex="1">
                    <mxGeometry x="-170" y="390" width="810" height="170" as="geometry"/>
                </mxCell>
                <mxCell id="tTIFcQUEu4Zsf-WGmQC3-23" value="&lt;h5 style=&quot;box-sizing: border-box ; margin-top: 0px ; margin-bottom: 0.5rem ; font-weight: 500 ; line-height: 1.2 ; font-size: 1.25rem ; color: rgb(33 , 37 , 41) ; font-family: , &amp;quot;blinkmacsystemfont&amp;quot; , &amp;quot;segoe ui&amp;quot; , &amp;quot;roboto&amp;quot; , &amp;quot;helvetica neue&amp;quot; , &amp;quot;arial&amp;quot; , &amp;quot;noto sans&amp;quot; , &amp;quot;liberation sans&amp;quot; , sans-serif , &amp;quot;apple color emoji&amp;quot; , &amp;quot;segoe ui emoji&amp;quot; , &amp;quot;segoe ui symbol&amp;quot; , &amp;quot;noto color emoji&amp;quot; ; background-color: rgb(233 , 236 , 239)&quot;&gt;Links&lt;/h5&gt;&lt;ul class=&quot;list-unstyled&quot; style=&quot;box-sizing: border-box ; margin-top: 0px ; margin-bottom: 1rem ; padding-left: 0px ; list-style: none ; color: rgb(33 , 37 , 41) ; font-family: , &amp;quot;blinkmacsystemfont&amp;quot; , &amp;quot;segoe ui&amp;quot; , &amp;quot;roboto&amp;quot; , &amp;quot;helvetica neue&amp;quot; , &amp;quot;arial&amp;quot; , &amp;quot;noto sans&amp;quot; , &amp;quot;liberation sans&amp;quot; , sans-serif , &amp;quot;apple color emoji&amp;quot; , &amp;quot;segoe ui emoji&amp;quot; , &amp;quot;segoe ui symbol&amp;quot; , &amp;quot;noto color emoji&amp;quot; ; font-size: 16px ; background-color: rgb(233 , 236 , 239)&quot;&gt;&lt;li style=&quot;box-sizing: border-box&quot;&gt;&lt;a href=&quot;http://localhost:3000/home&quot; style=&quot;box-sizing: border-box ; color: rgb(0 , 123 , 255) ; background-color: transparent&quot;&gt;Home&lt;/a&gt;&lt;/li&gt;&lt;li style=&quot;box-sizing: border-box&quot;&gt;&lt;a href=&quot;http://localhost:3000/aboutus&quot; style=&quot;box-sizing: border-box ; color: rgb(0 , 123 , 255) ; background-color: transparent&quot;&gt;About Us&lt;/a&gt;&lt;/li&gt;&lt;li style=&quot;box-sizing: border-box&quot;&gt;&lt;a href=&quot;http://localhost:3000/menu&quot; style=&quot;box-sizing: border-box ; color: rgb(0 , 123 , 255) ; background-color: transparent&quot;&gt;Menu&lt;/a&gt;&lt;/li&gt;&lt;li style=&quot;box-sizing: border-box&quot;&gt;&lt;a href=&quot;http://localhost:3000/contactus&quot; style=&quot;box-sizing: border-box ; color: rgb(0 , 123 , 255) ; background-color: transparent&quot;&gt;Contact Us&lt;/a&gt;&lt;/li&gt;&lt;/ul&gt;" style="rounded=0;whiteSpace=wrap;html=1;fillColor=#cce5ff;strokeColor=#36393d;" parent="rc40N2USjCdUX6H5CnkW-1" vertex="1">
                    <mxGeometry x="-140" y="400" width="120" height="150" as="geometry"/>
                </mxCell>
                <mxCell id="tTIFcQUEu4Zsf-WGmQC3-24" value="&#10;&#10;&lt;h5 style=&quot;box-sizing: border-box; margin-top: 0px; margin-bottom: 0.5rem; font-weight: 500; line-height: 1.2; font-size: 1.25rem; color: rgb(33, 37, 41); font-style: normal; letter-spacing: normal; text-align: center; text-indent: 0px; text-transform: none; word-spacing: 0px; background-color: rgb(233, 236, 239);&quot;&gt;Our Address&lt;/h5&gt;&lt;address style=&quot;box-sizing: border-box; margin-bottom: 1rem; font-style: normal; line-height: inherit; color: rgb(33, 37, 41); font-size: 16px; font-weight: 400; letter-spacing: normal; text-align: center; text-indent: 0px; text-transform: none; word-spacing: 0px; background-color: rgb(233, 236, 239);&quot;&gt;121, Clear Water Bay Road&lt;br style=&quot;box-sizing: border-box&quot;&gt;Clear Water Bay, Kowloon&lt;br style=&quot;box-sizing: border-box&quot;&gt;HONG KONG&lt;br style=&quot;box-sizing: border-box&quot;&gt;&lt;i class=&quot;fa fa-phone fa-lg&quot; style=&quot;box-sizing: border-box ; font-size: 1.25em ; line-height: 0.05em ; vertical-align: -0.075em&quot;&gt;&lt;/i&gt;: +852 1234 5678&lt;br style=&quot;box-sizing: border-box&quot;&gt;&lt;i class=&quot;fa fa-fax fa-lg&quot; style=&quot;box-sizing: border-box ; font-size: 1.25em ; line-height: 0.05em ; vertical-align: -0.075em&quot;&gt;&lt;/i&gt;: +852 8765 4321&lt;/address&gt;&#10;&#10;" style="rounded=0;whiteSpace=wrap;html=1;fillColor=#cce5ff;strokeColor=#36393d;" parent="rc40N2USjCdUX6H5CnkW-1" vertex="1">
                    <mxGeometry x="10" y="400" width="620" height="150" as="geometry"/>
                </mxCell>
                <mxCell id="tTIFcQUEu4Zsf-WGmQC3-26" value="&lt;span style=&quot;font-size: 20px&quot;&gt;&lt;b&gt;Phòng ban&lt;/b&gt;&lt;/span&gt;&lt;br style=&quot;font-size: 14px&quot;&gt;&lt;br style=&quot;font-size: 14px&quot;&gt;Số lượng nhân viên" style="html=1;shadow=0;dashed=0;shape=mxgraph.bootstrap.rrect;rSize=5;strokeColor=#DFDFDF;html=1;whiteSpace=wrap;fillColor=#FFFFFF;fontColor=#000000;align=left;verticalAlign=top;spacing=20;fontSize=14;" parent="rc40N2USjCdUX6H5CnkW-1" vertex="1">
                    <mxGeometry x="-170" y="160" width="260" height="90" as="geometry"/>
                </mxCell>
                <mxCell id="tTIFcQUEu4Zsf-WGmQC3-30" value="&lt;span style=&quot;font-size: 20px&quot;&gt;&lt;b&gt;Phòng ban&lt;/b&gt;&lt;/span&gt;&lt;br style=&quot;font-size: 14px&quot;&gt;&lt;br style=&quot;font-size: 14px&quot;&gt;Số lượng nhân viên" style="html=1;shadow=0;dashed=0;shape=mxgraph.bootstrap.rrect;rSize=5;strokeColor=#DFDFDF;html=1;whiteSpace=wrap;fillColor=#FFFFFF;fontColor=#000000;align=left;verticalAlign=top;spacing=20;fontSize=14;" parent="rc40N2USjCdUX6H5CnkW-1" vertex="1">
                    <mxGeometry x="110" y="160" width="260" height="90" as="geometry"/>
                </mxCell>
                <mxCell id="tTIFcQUEu4Zsf-WGmQC3-31" value="&lt;span style=&quot;font-size: 20px&quot;&gt;&lt;b&gt;Phòng ban&lt;/b&gt;&lt;/span&gt;&lt;br style=&quot;font-size: 14px&quot;&gt;&lt;br style=&quot;font-size: 14px&quot;&gt;Số lượng nhân viên" style="html=1;shadow=0;dashed=0;shape=mxgraph.bootstrap.rrect;rSize=5;strokeColor=#DFDFDF;html=1;whiteSpace=wrap;fillColor=#FFFFFF;fontColor=#000000;align=left;verticalAlign=top;spacing=20;fontSize=14;" parent="rc40N2USjCdUX6H5CnkW-1" vertex="1">
                    <mxGeometry x="390" y="160" width="260" height="90" as="geometry"/>
                </mxCell>
                <mxCell id="tTIFcQUEu4Zsf-WGmQC3-32" value="&lt;span style=&quot;font-size: 20px&quot;&gt;&lt;b&gt;Phòng ban&lt;/b&gt;&lt;/span&gt;&lt;br style=&quot;font-size: 14px&quot;&gt;&lt;br style=&quot;font-size: 14px&quot;&gt;Số lượng nhân viên" style="html=1;shadow=0;dashed=0;shape=mxgraph.bootstrap.rrect;rSize=5;strokeColor=#DFDFDF;html=1;whiteSpace=wrap;fillColor=#FFFFFF;fontColor=#000000;align=left;verticalAlign=top;spacing=20;fontSize=14;" parent="rc40N2USjCdUX6H5CnkW-1" vertex="1">
                    <mxGeometry x="-170" y="280" width="260" height="90" as="geometry"/>
                </mxCell>
                <mxCell id="tTIFcQUEu4Zsf-WGmQC3-33" value="&lt;span style=&quot;font-size: 20px&quot;&gt;&lt;b&gt;Phòng ban&lt;/b&gt;&lt;/span&gt;&lt;br style=&quot;font-size: 14px&quot;&gt;&lt;br style=&quot;font-size: 14px&quot;&gt;Số lượng nhân viên" style="html=1;shadow=0;dashed=0;shape=mxgraph.bootstrap.rrect;rSize=5;strokeColor=#DFDFDF;html=1;whiteSpace=wrap;fillColor=#FFFFFF;fontColor=#000000;align=left;verticalAlign=top;spacing=20;fontSize=14;" parent="rc40N2USjCdUX6H5CnkW-1" vertex="1">
                    <mxGeometry x="110" y="270" width="260" height="90" as="geometry"/>
                </mxCell>
                <mxCell id="tTIFcQUEu4Zsf-WGmQC3-34" value="&lt;span style=&quot;font-size: 20px&quot;&gt;&lt;b&gt;Phòng ban&lt;/b&gt;&lt;/span&gt;&lt;br style=&quot;font-size: 14px&quot;&gt;&lt;br style=&quot;font-size: 14px&quot;&gt;Số lượng nhân viên" style="html=1;shadow=0;dashed=0;shape=mxgraph.bootstrap.rrect;rSize=5;strokeColor=#DFDFDF;html=1;whiteSpace=wrap;fillColor=#FFFFFF;fontColor=#000000;align=left;verticalAlign=top;spacing=20;fontSize=14;" parent="rc40N2USjCdUX6H5CnkW-1" vertex="1">
                    <mxGeometry x="390" y="280" width="260" height="90" as="geometry"/>
                </mxCell>
            </root>
        </mxGraphModel>
    </diagram>
    <diagram id="4bFf5m-DRRRYK1k9WogU" name="Bảng lương-page">
        <mxGraphModel dx="1904" dy="524" grid="1" gridSize="10" guides="1" tooltips="1" connect="1" arrows="1" fold="1" page="1" pageScale="1" pageWidth="850" pageHeight="1100" math="0" shadow="0">
            <root>
                <mxCell id="gmg5BCWIi-TtwHR6zI9p-0"/>
                <mxCell id="gmg5BCWIi-TtwHR6zI9p-1" parent="gmg5BCWIi-TtwHR6zI9p-0"/>
                <mxCell id="_84IPrwaOWKIDWkr8ldM-0" value="" style="strokeWidth=1;shadow=0;dashed=0;align=center;html=1;shape=mxgraph.mockup.navigation.anchor;fontSize=17;fontColor=#008cff;fontStyle=1;" parent="gmg5BCWIi-TtwHR6zI9p-1" vertex="1">
                    <mxGeometry x="260" y="130" width="60" height="30" as="geometry"/>
                </mxCell>
                <mxCell id="_84IPrwaOWKIDWkr8ldM-1" value="Logo" style="html=1;shadow=0;dashed=0;fontSize=16;align=left;spacing=15;" parent="gmg5BCWIi-TtwHR6zI9p-1" vertex="1">
                    <mxGeometry x="-180" y="30" width="820" height="60" as="geometry"/>
                </mxCell>
                <mxCell id="_84IPrwaOWKIDWkr8ldM-2" value="Nhân viên" style="fillColor=none;strokeColor=none;fontSize=14;fontColor=#ffffff;align=center;" parent="_84IPrwaOWKIDWkr8ldM-1" vertex="1">
                    <mxGeometry width="70" height="40" relative="1" as="geometry">
                        <mxPoint x="70" y="10" as="offset"/>
                    </mxGeometry>
                </mxCell>
                <mxCell id="_84IPrwaOWKIDWkr8ldM-3" value="Phòng ban" style="fillColor=none;strokeColor=none;fontSize=14;fontColor=#FFFFFF;align=center;" parent="_84IPrwaOWKIDWkr8ldM-1" vertex="1">
                    <mxGeometry width="70" height="40" relative="1" as="geometry">
                        <mxPoint x="160" y="10" as="offset"/>
                    </mxGeometry>
                </mxCell>
                <mxCell id="_84IPrwaOWKIDWkr8ldM-4" value="Bảng lương" style="fillColor=none;strokeColor=none;fontSize=14;fontColor=#FFFFFF;align=center;spacingRight=0;" parent="_84IPrwaOWKIDWkr8ldM-1" vertex="1">
                    <mxGeometry width="80" height="40" relative="1" as="geometry">
                        <mxPoint x="240" y="10" as="offset"/>
                    </mxGeometry>
                </mxCell>
                <mxCell id="_84IPrwaOWKIDWkr8ldM-5" value="" style="html=1;shadow=0;dashed=0;fillColor=#0085FC;strokeColor=none;fontSize=16;fontColor=#ffffff;align=left;spacing=15;" parent="gmg5BCWIi-TtwHR6zI9p-1" vertex="1">
                    <mxGeometry x="-180" y="90" width="820" height="60" as="geometry"/>
                </mxCell>
                <mxCell id="_84IPrwaOWKIDWkr8ldM-7" value="Sắp xếp Id" style="rounded=1;fillColor=#F1F2F4;strokeColor=none;html=1;fontColor=#596780;align=left;fontSize=12;spacingLeft=10;sketch=0;" parent="_84IPrwaOWKIDWkr8ldM-5" vertex="1">
                    <mxGeometry x="8.03921568627451" y="13.5" width="144.7058823529412" height="33" as="geometry"/>
                </mxCell>
                <mxCell id="_84IPrwaOWKIDWkr8ldM-8" value="" style="shape=triangle;direction=south;fillColor=#596780;strokeColor=none;html=1;sketch=0;" parent="_84IPrwaOWKIDWkr8ldM-7" vertex="1">
                    <mxGeometry x="1" y="0.5" width="12" height="6" relative="1" as="geometry">
                        <mxPoint x="-20" y="-3" as="offset"/>
                    </mxGeometry>
                </mxCell>
                <mxCell id="_84IPrwaOWKIDWkr8ldM-11" value="" style="rounded=0;whiteSpace=wrap;html=1;fillColor=#eeeeee;strokeColor=#36393d;" parent="gmg5BCWIi-TtwHR6zI9p-1" vertex="1">
                    <mxGeometry x="-180" y="970" width="830" height="170" as="geometry"/>
                </mxCell>
                <mxCell id="_84IPrwaOWKIDWkr8ldM-12" value="&lt;h5 style=&quot;box-sizing: border-box ; margin-top: 0px ; margin-bottom: 0.5rem ; font-weight: 500 ; line-height: 1.2 ; font-size: 1.25rem ; color: rgb(33 , 37 , 41) ; font-family: , &amp;quot;blinkmacsystemfont&amp;quot; , &amp;quot;segoe ui&amp;quot; , &amp;quot;roboto&amp;quot; , &amp;quot;helvetica neue&amp;quot; , &amp;quot;arial&amp;quot; , &amp;quot;noto sans&amp;quot; , &amp;quot;liberation sans&amp;quot; , sans-serif , &amp;quot;apple color emoji&amp;quot; , &amp;quot;segoe ui emoji&amp;quot; , &amp;quot;segoe ui symbol&amp;quot; , &amp;quot;noto color emoji&amp;quot; ; background-color: rgb(233 , 236 , 239)&quot;&gt;Links&lt;/h5&gt;&lt;ul class=&quot;list-unstyled&quot; style=&quot;box-sizing: border-box ; margin-top: 0px ; margin-bottom: 1rem ; padding-left: 0px ; list-style: none ; color: rgb(33 , 37 , 41) ; font-family: , &amp;quot;blinkmacsystemfont&amp;quot; , &amp;quot;segoe ui&amp;quot; , &amp;quot;roboto&amp;quot; , &amp;quot;helvetica neue&amp;quot; , &amp;quot;arial&amp;quot; , &amp;quot;noto sans&amp;quot; , &amp;quot;liberation sans&amp;quot; , sans-serif , &amp;quot;apple color emoji&amp;quot; , &amp;quot;segoe ui emoji&amp;quot; , &amp;quot;segoe ui symbol&amp;quot; , &amp;quot;noto color emoji&amp;quot; ; font-size: 16px ; background-color: rgb(233 , 236 , 239)&quot;&gt;&lt;li style=&quot;box-sizing: border-box&quot;&gt;&lt;a href=&quot;http://localhost:3000/home&quot; style=&quot;box-sizing: border-box ; color: rgb(0 , 123 , 255) ; background-color: transparent&quot;&gt;Home&lt;/a&gt;&lt;/li&gt;&lt;li style=&quot;box-sizing: border-box&quot;&gt;&lt;a href=&quot;http://localhost:3000/aboutus&quot; style=&quot;box-sizing: border-box ; color: rgb(0 , 123 , 255) ; background-color: transparent&quot;&gt;About Us&lt;/a&gt;&lt;/li&gt;&lt;li style=&quot;box-sizing: border-box&quot;&gt;&lt;a href=&quot;http://localhost:3000/menu&quot; style=&quot;box-sizing: border-box ; color: rgb(0 , 123 , 255) ; background-color: transparent&quot;&gt;Menu&lt;/a&gt;&lt;/li&gt;&lt;li style=&quot;box-sizing: border-box&quot;&gt;&lt;a href=&quot;http://localhost:3000/contactus&quot; style=&quot;box-sizing: border-box ; color: rgb(0 , 123 , 255) ; background-color: transparent&quot;&gt;Contact Us&lt;/a&gt;&lt;/li&gt;&lt;/ul&gt;" style="rounded=0;whiteSpace=wrap;html=1;fillColor=#cce5ff;strokeColor=#36393d;" parent="gmg5BCWIi-TtwHR6zI9p-1" vertex="1">
                    <mxGeometry x="-150" y="980" width="120" height="150" as="geometry"/>
                </mxCell>
                <mxCell id="_84IPrwaOWKIDWkr8ldM-13" value="&#10;&#10;&lt;h5 style=&quot;box-sizing: border-box; margin-top: 0px; margin-bottom: 0.5rem; font-weight: 500; line-height: 1.2; font-size: 1.25rem; color: rgb(33, 37, 41); font-style: normal; letter-spacing: normal; text-align: center; text-indent: 0px; text-transform: none; word-spacing: 0px; background-color: rgb(233, 236, 239);&quot;&gt;Our Address&lt;/h5&gt;&lt;address style=&quot;box-sizing: border-box; margin-bottom: 1rem; font-style: normal; line-height: inherit; color: rgb(33, 37, 41); font-size: 16px; font-weight: 400; letter-spacing: normal; text-align: center; text-indent: 0px; text-transform: none; word-spacing: 0px; background-color: rgb(233, 236, 239);&quot;&gt;121, Clear Water Bay Road&lt;br style=&quot;box-sizing: border-box&quot;&gt;Clear Water Bay, Kowloon&lt;br style=&quot;box-sizing: border-box&quot;&gt;HONG KONG&lt;br style=&quot;box-sizing: border-box&quot;&gt;&lt;i class=&quot;fa fa-phone fa-lg&quot; style=&quot;box-sizing: border-box ; font-size: 1.25em ; line-height: 0.05em ; vertical-align: -0.075em&quot;&gt;&lt;/i&gt;: +852 1234 5678&lt;br style=&quot;box-sizing: border-box&quot;&gt;&lt;i class=&quot;fa fa-fax fa-lg&quot; style=&quot;box-sizing: border-box ; font-size: 1.25em ; line-height: 0.05em ; vertical-align: -0.075em&quot;&gt;&lt;/i&gt;: +852 8765 4321&lt;/address&gt;&#10;&#10;" style="rounded=0;whiteSpace=wrap;html=1;fillColor=#cce5ff;strokeColor=#36393d;" parent="gmg5BCWIi-TtwHR6zI9p-1" vertex="1">
                    <mxGeometry y="980" width="620" height="150" as="geometry"/>
                </mxCell>
                <mxCell id="hNygLr2GsycUsiXRxhwP-0" value="&#10;&#10;&lt;div class=&quot;card-title&quot; style=&quot;box-sizing: border-box; margin-bottom: 0.75rem; color: rgb(33, 37, 41); font-size: 16px; font-style: normal; font-weight: 400; letter-spacing: normal; text-align: center; text-indent: 0px; text-transform: none; word-spacing: 0px; background-color: rgb(255, 255, 255);&quot;&gt;Họ và tên:&lt;h3 style=&quot;box-sizing: border-box ; margin-top: 0px ; margin-bottom: 0.5rem ; font-weight: 500 ; line-height: 1.2 ; font-size: 1.75rem&quot;&gt;Nguyễn Văn A&lt;/h3&gt;&lt;/div&gt;&lt;div class=&quot;card-title&quot; style=&quot;box-sizing: border-box; margin-bottom: 0.75rem; color: rgb(33, 37, 41); font-size: 16px; font-style: normal; font-weight: 400; letter-spacing: normal; text-align: center; text-indent: 0px; text-transform: none; word-spacing: 0px; background-color: rgb(255, 255, 255);&quot;&gt;Mã số nhân viên:&lt;h4 style=&quot;box-sizing: border-box ; margin-top: 0px ; margin-bottom: 0.5rem ; font-weight: 500 ; line-height: 1.2 ; font-size: 1.5rem&quot;&gt;2&lt;/h4&gt;&lt;/div&gt;&lt;div class=&quot;card-title&quot; style=&quot;box-sizing: border-box; margin-bottom: 0.75rem; color: rgb(33, 37, 41); font-size: 16px; font-style: normal; font-weight: 400; letter-spacing: normal; text-align: center; text-indent: 0px; text-transform: none; word-spacing: 0px; background-color: rgb(255, 255, 255);&quot;&gt;Ngày sinh:&lt;span&gt;&amp;nbsp;&lt;/span&gt;01,01,1999&lt;/div&gt;&lt;div class=&quot;card-title&quot; style=&quot;box-sizing: border-box; margin-bottom: 0.75rem; color: rgb(33, 37, 41); font-size: 16px; font-style: normal; font-weight: 400; letter-spacing: normal; text-align: center; text-indent: 0px; text-transform: none; word-spacing: 0px; background-color: rgb(255, 255, 255);&quot;&gt;Ngày vào công ty:&lt;span&gt;&amp;nbsp;&lt;/span&gt;30,04,2019&lt;/div&gt;&lt;div class=&quot;card-title&quot; style=&quot;box-sizing: border-box; margin-bottom: 0.75rem; color: rgb(33, 37, 41); font-size: 16px; font-style: normal; font-weight: 400; letter-spacing: normal; text-align: center; text-indent: 0px; text-transform: none; word-spacing: 0px; background-color: rgb(255, 255, 255);&quot;&gt;Phòng ban:&lt;span&gt;&amp;nbsp;&lt;/span&gt;Sale&lt;/div&gt;&lt;div class=&quot;card-title&quot; style=&quot;box-sizing: border-box; margin-bottom: 0.75rem; color: rgb(33, 37, 41); font-size: 16px; font-style: normal; font-weight: 400; letter-spacing: normal; text-align: center; text-indent: 0px; text-transform: none; word-spacing: 0px; background-color: rgb(255, 255, 255);&quot;&gt;Số ngày nghĩ còn lại:&lt;span&gt;&amp;nbsp;&lt;/span&gt;1&lt;/div&gt;&lt;div class=&quot;card-title&quot; style=&quot;box-sizing: border-box; margin-bottom: 0.75rem; color: rgb(33, 37, 41); font-size: 16px; font-style: normal; font-weight: 400; letter-spacing: normal; text-align: center; text-indent: 0px; text-transform: none; word-spacing: 0px; background-color: rgb(255, 255, 255);&quot;&gt;Số ngày đã làm thêm:&lt;span&gt;&amp;nbsp;&lt;/span&gt;1&lt;/div&gt;&lt;br style=&quot;box-sizing: border-box; color: rgb(33, 37, 41); font-size: 16px; font-style: normal; font-weight: 400; letter-spacing: normal; text-align: center; text-indent: 0px; text-transform: none; word-spacing: 0px; background-color: rgb(255, 255, 255);&quot;&gt;&lt;div class=&quot;card-title&quot; style=&quot;box-sizing: border-box; margin-bottom: 0.75rem; color: rgb(33, 37, 41); font-size: 16px; font-style: normal; font-weight: 400; letter-spacing: normal; text-align: center; text-indent: 0px; text-transform: none; word-spacing: 0px; background-color: rgb(255, 255, 255);&quot;&gt;Lương:&lt;span&gt;&amp;nbsp;&lt;/span&gt;3500000&lt;/div&gt;&#10;&#10;" style="html=1;shadow=0;dashed=0;shape=mxgraph.bootstrap.rrect;rSize=5;strokeColor=#DFDFDF;html=1;whiteSpace=wrap;fillColor=#FFFFFF;fontColor=#000000;align=left;verticalAlign=top;spacing=20;fontSize=14;" parent="gmg5BCWIi-TtwHR6zI9p-1" vertex="1">
                    <mxGeometry x="-170" y="170" width="260" height="390" as="geometry"/>
                </mxCell>
                <mxCell id="hNygLr2GsycUsiXRxhwP-1" value="&#10;&#10;&lt;div class=&quot;card-title&quot; style=&quot;box-sizing: border-box; margin-bottom: 0.75rem; color: rgb(33, 37, 41); font-size: 16px; font-style: normal; font-weight: 400; letter-spacing: normal; text-align: center; text-indent: 0px; text-transform: none; word-spacing: 0px; background-color: rgb(255, 255, 255);&quot;&gt;Họ và tên:&lt;h3 style=&quot;box-sizing: border-box ; margin-top: 0px ; margin-bottom: 0.5rem ; font-weight: 500 ; line-height: 1.2 ; font-size: 1.75rem&quot;&gt;Nguyễn Văn A&lt;/h3&gt;&lt;/div&gt;&lt;div class=&quot;card-title&quot; style=&quot;box-sizing: border-box; margin-bottom: 0.75rem; color: rgb(33, 37, 41); font-size: 16px; font-style: normal; font-weight: 400; letter-spacing: normal; text-align: center; text-indent: 0px; text-transform: none; word-spacing: 0px; background-color: rgb(255, 255, 255);&quot;&gt;Mã số nhân viên:&lt;h4 style=&quot;box-sizing: border-box ; margin-top: 0px ; margin-bottom: 0.5rem ; font-weight: 500 ; line-height: 1.2 ; font-size: 1.5rem&quot;&gt;2&lt;/h4&gt;&lt;/div&gt;&lt;div class=&quot;card-title&quot; style=&quot;box-sizing: border-box; margin-bottom: 0.75rem; color: rgb(33, 37, 41); font-size: 16px; font-style: normal; font-weight: 400; letter-spacing: normal; text-align: center; text-indent: 0px; text-transform: none; word-spacing: 0px; background-color: rgb(255, 255, 255);&quot;&gt;Ngày sinh:&lt;span&gt;&amp;nbsp;&lt;/span&gt;01,01,1999&lt;/div&gt;&lt;div class=&quot;card-title&quot; style=&quot;box-sizing: border-box; margin-bottom: 0.75rem; color: rgb(33, 37, 41); font-size: 16px; font-style: normal; font-weight: 400; letter-spacing: normal; text-align: center; text-indent: 0px; text-transform: none; word-spacing: 0px; background-color: rgb(255, 255, 255);&quot;&gt;Ngày vào công ty:&lt;span&gt;&amp;nbsp;&lt;/span&gt;30,04,2019&lt;/div&gt;&lt;div class=&quot;card-title&quot; style=&quot;box-sizing: border-box; margin-bottom: 0.75rem; color: rgb(33, 37, 41); font-size: 16px; font-style: normal; font-weight: 400; letter-spacing: normal; text-align: center; text-indent: 0px; text-transform: none; word-spacing: 0px; background-color: rgb(255, 255, 255);&quot;&gt;Phòng ban:&lt;span&gt;&amp;nbsp;&lt;/span&gt;Sale&lt;/div&gt;&lt;div class=&quot;card-title&quot; style=&quot;box-sizing: border-box; margin-bottom: 0.75rem; color: rgb(33, 37, 41); font-size: 16px; font-style: normal; font-weight: 400; letter-spacing: normal; text-align: center; text-indent: 0px; text-transform: none; word-spacing: 0px; background-color: rgb(255, 255, 255);&quot;&gt;Số ngày nghĩ còn lại:&lt;span&gt;&amp;nbsp;&lt;/span&gt;1&lt;/div&gt;&lt;div class=&quot;card-title&quot; style=&quot;box-sizing: border-box; margin-bottom: 0.75rem; color: rgb(33, 37, 41); font-size: 16px; font-style: normal; font-weight: 400; letter-spacing: normal; text-align: center; text-indent: 0px; text-transform: none; word-spacing: 0px; background-color: rgb(255, 255, 255);&quot;&gt;Số ngày đã làm thêm:&lt;span&gt;&amp;nbsp;&lt;/span&gt;1&lt;/div&gt;&lt;br style=&quot;box-sizing: border-box; color: rgb(33, 37, 41); font-size: 16px; font-style: normal; font-weight: 400; letter-spacing: normal; text-align: center; text-indent: 0px; text-transform: none; word-spacing: 0px; background-color: rgb(255, 255, 255);&quot;&gt;&lt;div class=&quot;card-title&quot; style=&quot;box-sizing: border-box; margin-bottom: 0.75rem; color: rgb(33, 37, 41); font-size: 16px; font-style: normal; font-weight: 400; letter-spacing: normal; text-align: center; text-indent: 0px; text-transform: none; word-spacing: 0px; background-color: rgb(255, 255, 255);&quot;&gt;Lương:&lt;span&gt;&amp;nbsp;&lt;/span&gt;3500000&lt;/div&gt;&#10;&#10;" style="html=1;shadow=0;dashed=0;shape=mxgraph.bootstrap.rrect;rSize=5;strokeColor=#DFDFDF;html=1;whiteSpace=wrap;fillColor=#FFFFFF;fontColor=#000000;align=left;verticalAlign=top;spacing=20;fontSize=14;" parent="gmg5BCWIi-TtwHR6zI9p-1" vertex="1">
                    <mxGeometry x="110" y="170" width="260" height="390" as="geometry"/>
                </mxCell>
                <mxCell id="hNygLr2GsycUsiXRxhwP-2" value="&#10;&#10;&lt;div class=&quot;card-title&quot; style=&quot;box-sizing: border-box; margin-bottom: 0.75rem; color: rgb(33, 37, 41); font-size: 16px; font-style: normal; font-weight: 400; letter-spacing: normal; text-align: center; text-indent: 0px; text-transform: none; word-spacing: 0px; background-color: rgb(255, 255, 255);&quot;&gt;Họ và tên:&lt;h3 style=&quot;box-sizing: border-box ; margin-top: 0px ; margin-bottom: 0.5rem ; font-weight: 500 ; line-height: 1.2 ; font-size: 1.75rem&quot;&gt;Nguyễn Văn A&lt;/h3&gt;&lt;/div&gt;&lt;div class=&quot;card-title&quot; style=&quot;box-sizing: border-box; margin-bottom: 0.75rem; color: rgb(33, 37, 41); font-size: 16px; font-style: normal; font-weight: 400; letter-spacing: normal; text-align: center; text-indent: 0px; text-transform: none; word-spacing: 0px; background-color: rgb(255, 255, 255);&quot;&gt;Mã số nhân viên:&lt;h4 style=&quot;box-sizing: border-box ; margin-top: 0px ; margin-bottom: 0.5rem ; font-weight: 500 ; line-height: 1.2 ; font-size: 1.5rem&quot;&gt;2&lt;/h4&gt;&lt;/div&gt;&lt;div class=&quot;card-title&quot; style=&quot;box-sizing: border-box; margin-bottom: 0.75rem; color: rgb(33, 37, 41); font-size: 16px; font-style: normal; font-weight: 400; letter-spacing: normal; text-align: center; text-indent: 0px; text-transform: none; word-spacing: 0px; background-color: rgb(255, 255, 255);&quot;&gt;Ngày sinh:&lt;span&gt;&amp;nbsp;&lt;/span&gt;01,01,1999&lt;/div&gt;&lt;div class=&quot;card-title&quot; style=&quot;box-sizing: border-box; margin-bottom: 0.75rem; color: rgb(33, 37, 41); font-size: 16px; font-style: normal; font-weight: 400; letter-spacing: normal; text-align: center; text-indent: 0px; text-transform: none; word-spacing: 0px; background-color: rgb(255, 255, 255);&quot;&gt;Ngày vào công ty:&lt;span&gt;&amp;nbsp;&lt;/span&gt;30,04,2019&lt;/div&gt;&lt;div class=&quot;card-title&quot; style=&quot;box-sizing: border-box; margin-bottom: 0.75rem; color: rgb(33, 37, 41); font-size: 16px; font-style: normal; font-weight: 400; letter-spacing: normal; text-align: center; text-indent: 0px; text-transform: none; word-spacing: 0px; background-color: rgb(255, 255, 255);&quot;&gt;Phòng ban:&lt;span&gt;&amp;nbsp;&lt;/span&gt;Sale&lt;/div&gt;&lt;div class=&quot;card-title&quot; style=&quot;box-sizing: border-box; margin-bottom: 0.75rem; color: rgb(33, 37, 41); font-size: 16px; font-style: normal; font-weight: 400; letter-spacing: normal; text-align: center; text-indent: 0px; text-transform: none; word-spacing: 0px; background-color: rgb(255, 255, 255);&quot;&gt;Số ngày nghĩ còn lại:&lt;span&gt;&amp;nbsp;&lt;/span&gt;1&lt;/div&gt;&lt;div class=&quot;card-title&quot; style=&quot;box-sizing: border-box; margin-bottom: 0.75rem; color: rgb(33, 37, 41); font-size: 16px; font-style: normal; font-weight: 400; letter-spacing: normal; text-align: center; text-indent: 0px; text-transform: none; word-spacing: 0px; background-color: rgb(255, 255, 255);&quot;&gt;Số ngày đã làm thêm:&lt;span&gt;&amp;nbsp;&lt;/span&gt;1&lt;/div&gt;&lt;br style=&quot;box-sizing: border-box; color: rgb(33, 37, 41); font-size: 16px; font-style: normal; font-weight: 400; letter-spacing: normal; text-align: center; text-indent: 0px; text-transform: none; word-spacing: 0px; background-color: rgb(255, 255, 255);&quot;&gt;&lt;div class=&quot;card-title&quot; style=&quot;box-sizing: border-box; margin-bottom: 0.75rem; color: rgb(33, 37, 41); font-size: 16px; font-style: normal; font-weight: 400; letter-spacing: normal; text-align: center; text-indent: 0px; text-transform: none; word-spacing: 0px; background-color: rgb(255, 255, 255);&quot;&gt;Lương:&lt;span&gt;&amp;nbsp;&lt;/span&gt;3500000&lt;/div&gt;&#10;&#10;" style="html=1;shadow=0;dashed=0;shape=mxgraph.bootstrap.rrect;rSize=5;strokeColor=#DFDFDF;html=1;whiteSpace=wrap;fillColor=#FFFFFF;fontColor=#000000;align=left;verticalAlign=top;spacing=20;fontSize=14;" parent="gmg5BCWIi-TtwHR6zI9p-1" vertex="1">
                    <mxGeometry x="390" y="170" width="260" height="390" as="geometry"/>
                </mxCell>
                <mxCell id="hNygLr2GsycUsiXRxhwP-3" value="&#10;&#10;&lt;div class=&quot;card-title&quot; style=&quot;box-sizing: border-box; margin-bottom: 0.75rem; color: rgb(33, 37, 41); font-size: 16px; font-style: normal; font-weight: 400; letter-spacing: normal; text-align: center; text-indent: 0px; text-transform: none; word-spacing: 0px; background-color: rgb(255, 255, 255);&quot;&gt;Họ và tên:&lt;h3 style=&quot;box-sizing: border-box ; margin-top: 0px ; margin-bottom: 0.5rem ; font-weight: 500 ; line-height: 1.2 ; font-size: 1.75rem&quot;&gt;Nguyễn Văn A&lt;/h3&gt;&lt;/div&gt;&lt;div class=&quot;card-title&quot; style=&quot;box-sizing: border-box; margin-bottom: 0.75rem; color: rgb(33, 37, 41); font-size: 16px; font-style: normal; font-weight: 400; letter-spacing: normal; text-align: center; text-indent: 0px; text-transform: none; word-spacing: 0px; background-color: rgb(255, 255, 255);&quot;&gt;Mã số nhân viên:&lt;h4 style=&quot;box-sizing: border-box ; margin-top: 0px ; margin-bottom: 0.5rem ; font-weight: 500 ; line-height: 1.2 ; font-size: 1.5rem&quot;&gt;2&lt;/h4&gt;&lt;/div&gt;&lt;div class=&quot;card-title&quot; style=&quot;box-sizing: border-box; margin-bottom: 0.75rem; color: rgb(33, 37, 41); font-size: 16px; font-style: normal; font-weight: 400; letter-spacing: normal; text-align: center; text-indent: 0px; text-transform: none; word-spacing: 0px; background-color: rgb(255, 255, 255);&quot;&gt;Ngày sinh:&lt;span&gt;&amp;nbsp;&lt;/span&gt;01,01,1999&lt;/div&gt;&lt;div class=&quot;card-title&quot; style=&quot;box-sizing: border-box; margin-bottom: 0.75rem; color: rgb(33, 37, 41); font-size: 16px; font-style: normal; font-weight: 400; letter-spacing: normal; text-align: center; text-indent: 0px; text-transform: none; word-spacing: 0px; background-color: rgb(255, 255, 255);&quot;&gt;Ngày vào công ty:&lt;span&gt;&amp;nbsp;&lt;/span&gt;30,04,2019&lt;/div&gt;&lt;div class=&quot;card-title&quot; style=&quot;box-sizing: border-box; margin-bottom: 0.75rem; color: rgb(33, 37, 41); font-size: 16px; font-style: normal; font-weight: 400; letter-spacing: normal; text-align: center; text-indent: 0px; text-transform: none; word-spacing: 0px; background-color: rgb(255, 255, 255);&quot;&gt;Phòng ban:&lt;span&gt;&amp;nbsp;&lt;/span&gt;Sale&lt;/div&gt;&lt;div class=&quot;card-title&quot; style=&quot;box-sizing: border-box; margin-bottom: 0.75rem; color: rgb(33, 37, 41); font-size: 16px; font-style: normal; font-weight: 400; letter-spacing: normal; text-align: center; text-indent: 0px; text-transform: none; word-spacing: 0px; background-color: rgb(255, 255, 255);&quot;&gt;Số ngày nghĩ còn lại:&lt;span&gt;&amp;nbsp;&lt;/span&gt;1&lt;/div&gt;&lt;div class=&quot;card-title&quot; style=&quot;box-sizing: border-box; margin-bottom: 0.75rem; color: rgb(33, 37, 41); font-size: 16px; font-style: normal; font-weight: 400; letter-spacing: normal; text-align: center; text-indent: 0px; text-transform: none; word-spacing: 0px; background-color: rgb(255, 255, 255);&quot;&gt;Số ngày đã làm thêm:&lt;span&gt;&amp;nbsp;&lt;/span&gt;1&lt;/div&gt;&lt;br style=&quot;box-sizing: border-box; color: rgb(33, 37, 41); font-size: 16px; font-style: normal; font-weight: 400; letter-spacing: normal; text-align: center; text-indent: 0px; text-transform: none; word-spacing: 0px; background-color: rgb(255, 255, 255);&quot;&gt;&lt;div class=&quot;card-title&quot; style=&quot;box-sizing: border-box; margin-bottom: 0.75rem; color: rgb(33, 37, 41); font-size: 16px; font-style: normal; font-weight: 400; letter-spacing: normal; text-align: center; text-indent: 0px; text-transform: none; word-spacing: 0px; background-color: rgb(255, 255, 255);&quot;&gt;Lương:&lt;span&gt;&amp;nbsp;&lt;/span&gt;3500000&lt;/div&gt;&#10;&#10;" style="html=1;shadow=0;dashed=0;shape=mxgraph.bootstrap.rrect;rSize=5;strokeColor=#DFDFDF;html=1;whiteSpace=wrap;fillColor=#FFFFFF;fontColor=#000000;align=left;verticalAlign=top;spacing=20;fontSize=14;" parent="gmg5BCWIi-TtwHR6zI9p-1" vertex="1">
                    <mxGeometry x="-170" y="570" width="260" height="390" as="geometry"/>
                </mxCell>
                <mxCell id="hNygLr2GsycUsiXRxhwP-4" value="&#10;&#10;&lt;div class=&quot;card-title&quot; style=&quot;box-sizing: border-box; margin-bottom: 0.75rem; color: rgb(33, 37, 41); font-size: 16px; font-style: normal; font-weight: 400; letter-spacing: normal; text-align: center; text-indent: 0px; text-transform: none; word-spacing: 0px; background-color: rgb(255, 255, 255);&quot;&gt;Họ và tên:&lt;h3 style=&quot;box-sizing: border-box ; margin-top: 0px ; margin-bottom: 0.5rem ; font-weight: 500 ; line-height: 1.2 ; font-size: 1.75rem&quot;&gt;Nguyễn Văn A&lt;/h3&gt;&lt;/div&gt;&lt;div class=&quot;card-title&quot; style=&quot;box-sizing: border-box; margin-bottom: 0.75rem; color: rgb(33, 37, 41); font-size: 16px; font-style: normal; font-weight: 400; letter-spacing: normal; text-align: center; text-indent: 0px; text-transform: none; word-spacing: 0px; background-color: rgb(255, 255, 255);&quot;&gt;Mã số nhân viên:&lt;h4 style=&quot;box-sizing: border-box ; margin-top: 0px ; margin-bottom: 0.5rem ; font-weight: 500 ; line-height: 1.2 ; font-size: 1.5rem&quot;&gt;2&lt;/h4&gt;&lt;/div&gt;&lt;div class=&quot;card-title&quot; style=&quot;box-sizing: border-box; margin-bottom: 0.75rem; color: rgb(33, 37, 41); font-size: 16px; font-style: normal; font-weight: 400; letter-spacing: normal; text-align: center; text-indent: 0px; text-transform: none; word-spacing: 0px; background-color: rgb(255, 255, 255);&quot;&gt;Ngày sinh:&lt;span&gt;&amp;nbsp;&lt;/span&gt;01,01,1999&lt;/div&gt;&lt;div class=&quot;card-title&quot; style=&quot;box-sizing: border-box; margin-bottom: 0.75rem; color: rgb(33, 37, 41); font-size: 16px; font-style: normal; font-weight: 400; letter-spacing: normal; text-align: center; text-indent: 0px; text-transform: none; word-spacing: 0px; background-color: rgb(255, 255, 255);&quot;&gt;Ngày vào công ty:&lt;span&gt;&amp;nbsp;&lt;/span&gt;30,04,2019&lt;/div&gt;&lt;div class=&quot;card-title&quot; style=&quot;box-sizing: border-box; margin-bottom: 0.75rem; color: rgb(33, 37, 41); font-size: 16px; font-style: normal; font-weight: 400; letter-spacing: normal; text-align: center; text-indent: 0px; text-transform: none; word-spacing: 0px; background-color: rgb(255, 255, 255);&quot;&gt;Phòng ban:&lt;span&gt;&amp;nbsp;&lt;/span&gt;Sale&lt;/div&gt;&lt;div class=&quot;card-title&quot; style=&quot;box-sizing: border-box; margin-bottom: 0.75rem; color: rgb(33, 37, 41); font-size: 16px; font-style: normal; font-weight: 400; letter-spacing: normal; text-align: center; text-indent: 0px; text-transform: none; word-spacing: 0px; background-color: rgb(255, 255, 255);&quot;&gt;Số ngày nghĩ còn lại:&lt;span&gt;&amp;nbsp;&lt;/span&gt;1&lt;/div&gt;&lt;div class=&quot;card-title&quot; style=&quot;box-sizing: border-box; margin-bottom: 0.75rem; color: rgb(33, 37, 41); font-size: 16px; font-style: normal; font-weight: 400; letter-spacing: normal; text-align: center; text-indent: 0px; text-transform: none; word-spacing: 0px; background-color: rgb(255, 255, 255);&quot;&gt;Số ngày đã làm thêm:&lt;span&gt;&amp;nbsp;&lt;/span&gt;1&lt;/div&gt;&lt;br style=&quot;box-sizing: border-box; color: rgb(33, 37, 41); font-size: 16px; font-style: normal; font-weight: 400; letter-spacing: normal; text-align: center; text-indent: 0px; text-transform: none; word-spacing: 0px; background-color: rgb(255, 255, 255);&quot;&gt;&lt;div class=&quot;card-title&quot; style=&quot;box-sizing: border-box; margin-bottom: 0.75rem; color: rgb(33, 37, 41); font-size: 16px; font-style: normal; font-weight: 400; letter-spacing: normal; text-align: center; text-indent: 0px; text-transform: none; word-spacing: 0px; background-color: rgb(255, 255, 255);&quot;&gt;Lương:&lt;span&gt;&amp;nbsp;&lt;/span&gt;3500000&lt;/div&gt;&#10;&#10;" style="html=1;shadow=0;dashed=0;shape=mxgraph.bootstrap.rrect;rSize=5;strokeColor=#DFDFDF;html=1;whiteSpace=wrap;fillColor=#FFFFFF;fontColor=#000000;align=left;verticalAlign=top;spacing=20;fontSize=14;" parent="gmg5BCWIi-TtwHR6zI9p-1" vertex="1">
                    <mxGeometry x="105" y="570" width="260" height="390" as="geometry"/>
                </mxCell>
                <mxCell id="hNygLr2GsycUsiXRxhwP-5" value="&#10;&#10;&lt;div class=&quot;card-title&quot; style=&quot;box-sizing: border-box; margin-bottom: 0.75rem; color: rgb(33, 37, 41); font-size: 16px; font-style: normal; font-weight: 400; letter-spacing: normal; text-align: center; text-indent: 0px; text-transform: none; word-spacing: 0px; background-color: rgb(255, 255, 255);&quot;&gt;Họ và tên:&lt;h3 style=&quot;box-sizing: border-box ; margin-top: 0px ; margin-bottom: 0.5rem ; font-weight: 500 ; line-height: 1.2 ; font-size: 1.75rem&quot;&gt;Nguyễn Văn A&lt;/h3&gt;&lt;/div&gt;&lt;div class=&quot;card-title&quot; style=&quot;box-sizing: border-box; margin-bottom: 0.75rem; color: rgb(33, 37, 41); font-size: 16px; font-style: normal; font-weight: 400; letter-spacing: normal; text-align: center; text-indent: 0px; text-transform: none; word-spacing: 0px; background-color: rgb(255, 255, 255);&quot;&gt;Mã số nhân viên:&lt;h4 style=&quot;box-sizing: border-box ; margin-top: 0px ; margin-bottom: 0.5rem ; font-weight: 500 ; line-height: 1.2 ; font-size: 1.5rem&quot;&gt;2&lt;/h4&gt;&lt;/div&gt;&lt;div class=&quot;card-title&quot; style=&quot;box-sizing: border-box; margin-bottom: 0.75rem; color: rgb(33, 37, 41); font-size: 16px; font-style: normal; font-weight: 400; letter-spacing: normal; text-align: center; text-indent: 0px; text-transform: none; word-spacing: 0px; background-color: rgb(255, 255, 255);&quot;&gt;Ngày sinh:&lt;span&gt;&amp;nbsp;&lt;/span&gt;01,01,1999&lt;/div&gt;&lt;div class=&quot;card-title&quot; style=&quot;box-sizing: border-box; margin-bottom: 0.75rem; color: rgb(33, 37, 41); font-size: 16px; font-style: normal; font-weight: 400; letter-spacing: normal; text-align: center; text-indent: 0px; text-transform: none; word-spacing: 0px; background-color: rgb(255, 255, 255);&quot;&gt;Ngày vào công ty:&lt;span&gt;&amp;nbsp;&lt;/span&gt;30,04,2019&lt;/div&gt;&lt;div class=&quot;card-title&quot; style=&quot;box-sizing: border-box; margin-bottom: 0.75rem; color: rgb(33, 37, 41); font-size: 16px; font-style: normal; font-weight: 400; letter-spacing: normal; text-align: center; text-indent: 0px; text-transform: none; word-spacing: 0px; background-color: rgb(255, 255, 255);&quot;&gt;Phòng ban:&lt;span&gt;&amp;nbsp;&lt;/span&gt;Sale&lt;/div&gt;&lt;div class=&quot;card-title&quot; style=&quot;box-sizing: border-box; margin-bottom: 0.75rem; color: rgb(33, 37, 41); font-size: 16px; font-style: normal; font-weight: 400; letter-spacing: normal; text-align: center; text-indent: 0px; text-transform: none; word-spacing: 0px; background-color: rgb(255, 255, 255);&quot;&gt;Số ngày nghĩ còn lại:&lt;span&gt;&amp;nbsp;&lt;/span&gt;1&lt;/div&gt;&lt;div class=&quot;card-title&quot; style=&quot;box-sizing: border-box; margin-bottom: 0.75rem; color: rgb(33, 37, 41); font-size: 16px; font-style: normal; font-weight: 400; letter-spacing: normal; text-align: center; text-indent: 0px; text-transform: none; word-spacing: 0px; background-color: rgb(255, 255, 255);&quot;&gt;Số ngày đã làm thêm:&lt;span&gt;&amp;nbsp;&lt;/span&gt;1&lt;/div&gt;&lt;br style=&quot;box-sizing: border-box; color: rgb(33, 37, 41); font-size: 16px; font-style: normal; font-weight: 400; letter-spacing: normal; text-align: center; text-indent: 0px; text-transform: none; word-spacing: 0px; background-color: rgb(255, 255, 255);&quot;&gt;&lt;div class=&quot;card-title&quot; style=&quot;box-sizing: border-box; margin-bottom: 0.75rem; color: rgb(33, 37, 41); font-size: 16px; font-style: normal; font-weight: 400; letter-spacing: normal; text-align: center; text-indent: 0px; text-transform: none; word-spacing: 0px; background-color: rgb(255, 255, 255);&quot;&gt;Lương:&lt;span&gt;&amp;nbsp;&lt;/span&gt;3500000&lt;/div&gt;&#10;&#10;" style="html=1;shadow=0;dashed=0;shape=mxgraph.bootstrap.rrect;rSize=5;strokeColor=#DFDFDF;html=1;whiteSpace=wrap;fillColor=#FFFFFF;fontColor=#000000;align=left;verticalAlign=top;spacing=20;fontSize=14;" parent="gmg5BCWIi-TtwHR6zI9p-1" vertex="1">
                    <mxGeometry x="390" y="570" width="260" height="390" as="geometry"/>
                </mxCell>
            </root>
        </mxGraphModel>
    </diagram>
</mxfile>